/* XPM */
static char *digitslate16[] = {
/* columns rows colors chars-per-pixel */
"16 16 6 1 ",
"  c #FF6632",
". c #FF6633",
"X c #FF6666",
"o c #FF6667",
"O c #009999",
"+ c None",
/* pixels */
"+++++++OO+++++++",
"+++++++OOOO+++++",
"++++XX++OOOO++++",
"++++XXXX++OOOO++",
"+...++XX++++OOO+",
"++...+++++++++O+",
"++++...+++++++++",
"+++++....+++++++",
"+++++++....+++++",
"+++++++++...++++",
"+O+++++++++...++",
"+OOO++++XX++...+",
"++OOOO++XXXX++++",
"++++OOO+++XX++++",
"+++++OOOO+++++++",
"+++++++OO+++++++"
};
