/* XPM */
static char *digitslate128[] = {
/* columns rows colors chars-per-pixel */
"128 128 14 1 ",
"  c #FE6532",
". c #FE6533",
"X c #FF6533",
"o c #FE6632",
"O c #FF6632",
"+ c #FE6633",
"@ c #FF6633",
"# c #FE6565",
"$ c #FF6565",
"% c #FE6666",
"& c #FF6666",
"* c #009898",
"= c #009999",
"- c None",
/* pixels */
"---------------------------------------------------------------==---------------------------------------------------------------",
"-------------------------------------------------------------======-------------------------------------------------------------",
"-----------------------------------------------------------==========-----------------------------------------------------------",
"----------------------------------------------------------============----------------------------------------------------------",
"--------------------------------------------------------================--------------------------------------------------------",
"------------------------------------------------------====================------------------------------------------------------",
"----------------------------------------------------========================----------------------------------------------------",
"---------------------------------------------------==========================---------------------------------------------------",
"-------------------------------------------------==============================-------------------------------------------------",
"--------------------------------------------------===============================-----------------------------------------------",
"---------------------------------------------------================================---------------------------------------------",
"-----------------------------------------------------===============================--------------------------------------------",
"-------------------------------------------------------===============================------------------------------------------",
"--------------------------------------------------------================================----------------------------------------",
"---------------------------------------&------------------===============================---------------------------------------",
"-------------------------------------&&&&-------------------===============================-------------------------------------",
"-----------------------------------&&&&&&&&-------------------===============================-----------------------------------",
"---------------------------------&&&&&&&&&&&&------------------================================---------------------------------",
"--------------------------------&&&&&&&&&&&&&&&------------------===============================--------------------------------",
"------------------------------&&&&&&&&&&&&&&&&&&-------------------===============================------------------------------",
"----------------------------&&&&&&&&&&&&&&&&&&&&&&-------------------===============================----------------------------",
"---------------------------&&&&&&&&&&&&&&&&&&&&&&&&&------------------================================--------------------------",
"-------------------------&&&&&&&&&&&&&&&&&&&&&&&&&&&&&------------------===============================-------------------------",
"---------------------------&&&&&&&&&&&&&&&&&&&&&&&&&&&&-------------------===============================-----------------------",
"----------------------------&&&&&&&&&&&&&&&&&&&&&&&&&&&&&------------------================================---------------------",
"------------------------------&&&&&&&&&&&&&&&&&&&&&&&&&&&&&------------------================================-------------------",
"--------------------------------&&&&&&&&&&&&&&&&&&&&&&&&&&&&-------------------===============================------------------",
"---------------------------------&&&&&&&&&&&&&&&&&&&&&&&&&&&&&-------------------===============================----------------",
"--------------+@-------------------&&&&&&&&&&&&&&&&&&&&&&&&&&&&-------------------================================--------------",
"-------------@@@++-------------------&&&&&&&&&&&&&&&&&&&&&&&&&&---------------------===============================-------------",
"-----------@@@@@@++--------------------&&&&&&&&&&&&&&&&&&&&&&&&-----------------------===============================-----------",
"---------+@@@@@@@@+++-------------------&&&&&&&&&&&&&&&&&&&&&&&-------------------------===============================---------",
"--------+@@@@@@@@@@@@@@-------------------&&&&&&&&&&&&&&&&&&&&&--------------------------===============================--------",
"--------@@@@@@@@@@@@@@@@@-------------------&&&&&&&&&&&&&&&&&&&----------------------------=============================--------",
"--------@@@@@@@@@@@@@@@@@@--------------------&&&&&&&&&&&&&&&&&------------------------------===========================--------",
"--------@@@@@@@@@@@@@@@@@@@@-------------------&&&&&&&&&&&&&&&&-------------------------------==========================--------",
"--------@@@@@@@@@@@@@@@@@@@@@+-------------------&&&&&&&&&&&&&&---------------------------------========================--------",
"--------@@@@@@@@@@@@@@@@@@@@@@@@-------------------&&&&&&&&&&&&-----------------------------------======================--------",
"--------@@@@@@@@@@@@@@@@@@@@@@@@@-------------------&&&&&&&&&&&-------------------------------------====================--------",
"--------@@@@@@@@@@@@@@@@@@@@@@@@@@+-------------------&&&&&&&&&--------------------------------------===================--------",
"---------@@@@@@@@@@@@@@@@@@@@@@@@@@@+-------------------&&&&&&&----------------------------------------=================--------",
"----------+@@@@@@@@@@@@@@@@@@@@@@@@@@+@-------------------&&&&&------------------------------------------===============--------",
"------------+@@@@@@@@@@@@@@@@@@@@@@@@@@@-------------------&&&&--------------------------------------------=============--------",
"--------------@@@@@@@@@@@@@@@@@@@@@@@@@@++-------------------&&---------------------------------------------============--------",
"---------------+@@@@@@@@@@@@@@@@@@@@@@@@@@++------------------------------------------------------------------==========--------",
"-----------------@@@@@@@@@@@@@@@@@@@@@@@@@@@+-------------------------------------------------------------------========--------",
"-------------------@@@@@@@@@@@@@@@@@@@@@@@@@@@+-------------------------------------------------------------------======--------",
"---------------------@@@@@@@@@@@@@@@@@@@@@@@@+++@------------------------------------------------------------------=====--------",
"----------------------++@@@@@@@@@@@@@@@@@@@@@@@@@@@------------------------------------------------------------------===--------",
"------------------------+@@@@@@@@@@@@@@@@@@@@@@@@@@@-------------------------------------------------------------------=--------",
"--------------------------++@@@@@@@@@@@@@@@@@@@@@@@@@@--------------------------------------------------------------------------",
"----------------------------+@@@@@@@@@@@@@@@@@@@@@@@@@@@------------------------------------------------------------------------",
"-----------------------------+@@@@@@@@@@@@@@@@@@@@@@@@@@@@----------------------------------------------------------------------",
"-------------------------------+@@@@@@@@@@@@@@@@@@@@@@@@@@@---------------------------------------------------------------------",
"---------------------------------@@@@@@@@@@@@@@@@@@@@@@@@@@@@-------------------------------------------------------------------",
"----------------------------------@@@@@@@@@@@@@@@@@@@@@@@@@@@@@-----------------------------------------------------------------",
"------------------------------------@@@@@@@@@@@@@@@@@@@@@@@@@@@@+---------------------------------------------------------------",
"--------------------------------------@@@@@@@@@@@@@@@@@@@@@@@@@@++--------------------------------------------------------------",
"----------------------------------------+@@@@@@@@@@@@@@@@@@@@@@@@@@@------------------------------------------------------------",
"-----------------------------------------@@@@@@@@@@@@@@@@@@@@@@@@@@@++----------------------------------------------------------",
"-------------------------------------------++@@@@@@@@@@@@@@@@@@@@@@@@@@---------------------------------------------------------",
"---------------------------------------------@@@@@@@@@@@@@@@@@@@@@@@@@@@+-------------------------------------------------------",
"-----------------------------------------------+@@@@@@@@@@@@@@@@@@@@@@@@+++-----------------------------------------------------",
"------------------------------------------------@@@@@@@@@@@@@@@@@@@@@@@@@@+++---------------------------------------------------",
"--------------------------------------------------@@@@@@@@@@@@@@@@@@@@@@@@@@@@--------------------------------------------------",
"----------------------------------------------------@@@@@@@@@@@@@@@@@@@@@@@@@@@@------------------------------------------------",
"------------------------------------------------------@@@@@@@@@@@@@@@@@@@@@@@@@@@@----------------------------------------------",
"-------------------------------------------------------@@@@@@@@@@@@@@@@@@@@@@@@@@@@@--------------------------------------------",
"---------------------------------------------------------@@@@@@@@@@@@@@@@@@@@@@@@@@@@-------------------------------------------",
"-----------------------------------------------------------@++@@@@@@@@@@@@@@@@@@@@@@@@@-----------------------------------------",
"------------------------------------------------------------++++@@@@@@@@@@@@@@@@@@@@@@@@@---------------------------------------",
"--------------------------------------------------------------++@@@@@@@@@@@@@@@@@@@@@@@@@@--------------------------------------",
"----------------------------------------------------------------@@@@@@@@@@@@@@@@@@@@@@@@@@@@------------------------------------",
"------------------------------------------------------------------@@@@@@@@@@@@@@@@@@@@@@@@@@@@----------------------------------",
"-------------------------------------------------------------------@@@@@@@@@@@@@@@@@@@@@@@@@@@@@--------------------------------",
"---------------------------------------------------------------------@@@@@@@@@@@@@@@@@@@@@@@@@@@@-------------------------------",
"-----------------------------------------------------------------------@@@@@@@@@@@@@@@@@@@@@@@@@@@@-----------------------------",
"-------------------------------------------------------------------------@@@@@@@@@@@@@@@@@@@@@@@@@@@+---------------------------",
"--------------------------------------------------------------------------@@@@@@@@@@@@@@@@@@@@@@@@@@@+@-------------------------",
"--------=-------------------------------------------------------------------@@@@@@@@@@@@@@@@@@@@@@@@@@@+------------------------",
"--------==--------------------------------------------------------------------@@@@@@@@@@@@@@@@@@@@@@@@@@@@----------------------",
"--------====--------------------------------------------------------------------@@@@@@@@@@@@@@@@@@@@@@@@@@@@--------------------",
"--------======-------------------------------------------------------------------@@@@@@@@@@@@@@@@@@@@@@@@@@@@@------------------",
"--------========-------------------------------------------------&-----------------@@@@@@@@@@@@@@@@@@@@@@@@@@@@-----------------",
"--------=========-----------------------------------------------&&&------------------@@@@@@@@@@@@@@@@@@@@@@@@@@@+---------------",
"--------===========---------------------------------------------&&&&&-----------------@@@@@@@@@@@@@@@@@@@@@@@@@@@@+-------------",
"--------=============-------------------------------------------&&&&&&&-----------------+@@@@@@@@@@@@@@@@@@@@@@@@@@@------------",
"--------===============-----------------------------------------&&&&&&&&&-----------------@@@@@@@@@@@@@@@@@@@@@@@@@@@+----------",
"--------================----------------------------------------&&&&&&&&&&------------------+++@@@@@@@@@@@@@@@@@@@@@@@@+--------",
"--------==================--------------------------------------&&&&&&&&&&&&-----------------++@@@@@@@@@@@@@@@@@@@@@@@@@--------",
"--------====================------------------------------------&&&&&&&&&&&&&&-----------------+@@@@@@@@@@@@@@@@@@@@@@@@--------",
"--------=====================-----------------------------------&&&&&&&&&&&&&&&&-----------------@@@@@@@@@@@@@@@@@@@@@@@--------",
"--------=======================---------------------------------&&&&&&&&&&&&&&&&&------------------@@@@@@@@@@@@@@@@@@@@@--------",
"--------=========================-------------------------------&&&&&&&&&&&&&&&&&&&-----------------@@@@@@@@@@@@@@@@@@@@--------",
"--------===========================-----------------------------&&&&&&&&&&&&&&&&&&&&&-----------------@@@@@@@@@@@@@@@@@@--------",
"--------============================----------------------------&&&&&&&&&&&&&&&&&&&&&&&-----------------@@@@@@@@@@@@@@@@--------",
"---------=============================--------------------------&&&&&&&&&&&&&&&&&&&&&&&&------------------++++@@@@@@@@+---------",
"----------==============================------------------------&&&&&&&&&&&&&&&&&&&&&&&&&&-----------------+++@@@@@@++----------",
"------------==============================----------------------&&&&&&&&&&&&&&&&&&&&&&&&&&&&-----------------@@@@@++------------",
"--------------=============================---------------------&&&&&&&&&&&&&&&&&&&&&&&&&&&&&------------------@@+--------------",
"----------------=============================--------------------&&&&&&&&&&&&&&&&&&&&&&&&&&&&&&---------------------------------",
"-----------------==============================-------------------&&&&&&&&&&&&&&&&&&&&&&&&&&&&&&&-------------------------------",
"-------------------==============================-------------------&&&&&&&&&&&&&&&&&&&&&&&&&&&&&&&-----------------------------",
"---------------------=============================-------------------&&&&&&&&&&&&&&&&&&&&&&&&&&&&&&&----------------------------",
"-----------------------=============================-------------------&&&&&&&&&&&&&&&&&&&&&&&&&&&&&&&--------------------------",
"------------------------==============================-------------------&&&&&&&&&&&&&&&&&&&&&&&&&&&&&&-------------------------",
"--------------------------=============================-------------------&&&&&&&&&&&&&&&&&&&&&&&&&&&&--------------------------",
"----------------------------=============================-------------------&&&&&&&&&&&&&&&&&&&&&&&&----------------------------",
"------------------------------=============================-------------------&&&&&&&&&&&&&&&&&&&&------------------------------",
"-------------------------------==============================-------------------&&&&&&&&&&&&&&&&&-------------------------------",
"---------------------------------=============================-------------------&&&&&&&&&&&&&&---------------------------------",
"-----------------------------------=============================-------------------&&&&&&&&&&-----------------------------------",
"-------------------------------------=============================-------------------&&&&&&-------------------------------------",
"--------------------------------------==============================-------------------&&---------------------------------------",
"----------------------------------------=============================-----------------------------------------------------------",
"------------------------------------------=============================---------------------------------------------------------",
"--------------------------------------------=============================-------------------------------------------------------",
"---------------------------------------------==============================-----------------------------------------------------",
"-----------------------------------------------=============================----------------------------------------------------",
"-------------------------------------------------=============================--------------------------------------------------",
"---------------------------------------------------==========================---------------------------------------------------",
"-----------------------------------------------------======================-----------------------------------------------------",
"------------------------------------------------------====================------------------------------------------------------",
"--------------------------------------------------------================--------------------------------------------------------",
"----------------------------------------------------------============----------------------------------------------------------",
"------------------------------------------------------------========------------------------------------------------------------",
"-------------------------------------------------------------======-------------------------------------------------------------",
"---------------------------------------------------------------==---------------------------------------------------------------"
};
