/* XPM */
static char *digitslate32[] = {
/* columns rows colors chars-per-pixel */
"32 32 4 1 ",
"  c #FF6633",
". c #FF6666",
"X c #009999",
"o c None",
/* pixels */
"oooooooooooooooXXooooooooooooooo",
"oooooooooooooXXXXXXooooooooooooo",
"oooooooooooooXXXXXXXoooooooooooo",
"ooooooooooooooXXXXXXXXoooooooooo",
"oooooooo...oooooXXXXXXXXoooooooo",
"ooooooo......oooooXXXXXXXXoooooo",
"oooooooo.......oooooXXXXXXXooooo",
"ooo  oooo.......oooooXXXXXXXXooo",
"oo    ooooo.....oooooooXXXXXXXoo",
"oo      ooooo...oooooooooXXXXXoo",
"ooo       ooooo.ooooooooooXXXXoo",
"ooooo       ooooooooooooooooXXoo",
"oooooo       ooooooooooooooooooo",
"oooooooo       ooooooooooooooooo",
"oooooooooo       ooooooooooooooo",
"ooooooooooo        ooooooooooooo",
"ooooooooooooo       oooooooooooo",
"ooooooooooooooo       oooooooooo",
"ooooooooooooooooo       oooooooo",
"oooooooooooooooooo       ooooooo",
"ooXooooooooooooooooo       ooooo",
"ooXXXooooooooooo..oooo       ooo",
"ooXXXXXooooooooo...ooooo      oo",
"ooXXXXXXoooooooo.....oooo     oo",
"oooXXXXXXXoooooo.......oooo  ooo",
"oooooXXXXXXXooooo.......oooooooo",
"ooooooXXXXXXXXoooo.......ooooooo",
"ooooooooXXXXXXXooooo....oooooooo",
"ooooooooooXXXXXXXooooooooooooooo",
"ooooooooooooXXXXXXXooooooooooooo",
"oooooooooooooXXXXXXooooooooooooo",
"oooooooooooooooXXooooooooooooooo"
};
