/* XPM */
static char *digitslate64[] = {
/* columns rows colors chars-per-pixel */
"64 64 4 1 ",
"  c #FF6633",
". c #FF6666",
"X c #009999",
"o c None",
/* pixels */
"oooooooooooooooooooooooooooooooXXooooooooooooooooooooooooooooooo",
"oooooooooooooooooooooooooooooXXXXXXooooooooooooooooooooooooooooo",
"oooooooooooooooooooooooooooXXXXXXXXXXooooooooooooooooooooooooooo",
"ooooooooooooooooooooooooooXXXXXXXXXXXXoooooooooooooooooooooooooo",
"oooooooooooooooooooooooooXXXXXXXXXXXXXXXoooooooooooooooooooooooo",
"ooooooooooooooooooooooooooXXXXXXXXXXXXXXXXoooooooooooooooooooooo",
"ooooooooooooooooooooooooooooXXXXXXXXXXXXXXXooooooooooooooooooooo",
"ooooooooooooooooooo.ooooooooooXXXXXXXXXXXXXXXooooooooooooooooooo",
"ooooooooooooooooo.....oooooooooXXXXXXXXXXXXXXXXooooooooooooooooo",
"ooooooooooooooo.........oooooooooXXXXXXXXXXXXXXXXooooooooooooooo",
"oooooooooooooo...........ooooooooooXXXXXXXXXXXXXXXoooooooooooooo",
"ooooooooooooo..............oooooooooXXXXXXXXXXXXXXXXoooooooooooo",
"ooooooooooooooo..............oooooooooXXXXXXXXXXXXXXXXoooooooooo",
"oooooooooooooooo...............oooooooooXXXXXXXXXXXXXXXXoooooooo",
"ooooooo oooooooooo..............ooooooooooXXXXXXXXXXXXXXXooooooo",
"ooooo     oooooooooo............oooooooooooXXXXXXXXXXXXXXXXooooo",
"oooo        ooooooooo...........oooooooooooooXXXXXXXXXXXXXXXoooo",
"oooo          ooooooooo.........oooooooooooooooXXXXXXXXXXXXXoooo",
"oooo           oooooooooo.......oooooooooooooooooXXXXXXXXXXXoooo",
"oooo             oooooooooo.....ooooooooooooooooooXXXXXXXXXXoooo",
"ooooo              ooooooooo....ooooooooooooooooooooXXXXXXXXoooo",
"oooooo               ooooooooo..ooooooooooooooooooooooXXXXXXoooo",
"oooooooo              oooooooooooooooooooooooooooooooooXXXXXoooo",
"oooooooooo              oooooooooooooooooooooooooooooooooXXXoooo",
"oooooooooooo              oooooooooooooooooooooooooooooooooXoooo",
"ooooooooooooo              ooooooooooooooooooooooooooooooooooooo",
"ooooooooooooooo              ooooooooooooooooooooooooooooooooooo",
"ooooooooooooooooo              ooooooooooooooooooooooooooooooooo",
"ooooooooooooooooooo              ooooooooooooooooooooooooooooooo",
"oooooooooooooooooooo              oooooooooooooooooooooooooooooo",
"oooooooooooooooooooooo              oooooooooooooooooooooooooooo",
"oooooooooooooooooooooooo              oooooooooooooooooooooooooo",
"ooooooooooooooooooooooooo               oooooooooooooooooooooooo",
"ooooooooooooooooooooooooooo              ooooooooooooooooooooooo",
"ooooooooooooooooooooooooooooo              ooooooooooooooooooooo",
"ooooooooooooooooooooooooooooooo              ooooooooooooooooooo",
"oooooooooooooooooooooooooooooooo               ooooooooooooooooo",
"oooooooooooooooooooooooooooooooooo              oooooooooooooooo",
"oooooooooooooooooooooooooooooooooooo              oooooooooooooo",
"oooooooooooooooooooooooooooooooooooooo              oooooooooooo",
"ooooXXooooooooooooooooooooooooooooooooo              ooooooooooo",
"ooooXXXoooooooooooooooooooooooooooooooooo              ooooooooo",
"ooooXXXXXooooooooooooooooooooooo..ooooooooo              ooooooo",
"ooooXXXXXXXooooooooooooooooooooo....ooooooooo              ooooo",
"ooooXXXXXXXXXooooooooooooooooooo......oooooooo              oooo",
"ooooXXXXXXXXXXoooooooooooooooooo.......ooooooooo            oooo",
"ooooXXXXXXXXXXXXoooooooooooooooo.........ooooooooo          oooo",
"ooooXXXXXXXXXXXXXXoooooooooooooo...........oooooooo         oooo",
"oooooXXXXXXXXXXXXXXXoooooooooooo.............oooooooo      ooooo",
"ooooooXXXXXXXXXXXXXXXooooooooooo..............ooooooooo  ooooooo",
"ooooooooXXXXXXXXXXXXXXXoooooooooo...............oooooooooooooooo",
"ooooooooooXXXXXXXXXXXXXXXooooooooo................oooooooooooooo",
"ooooooooooooXXXXXXXXXXXXXXoooooooooo...............ooooooooooooo",
"ooooooooooooooXXXXXXXXXXXXXXoooooooooo............oooooooooooooo",
"oooooooooooooooXXXXXXXXXXXXXXXooooooooo..........ooooooooooooooo",
"oooooooooooooooooXXXXXXXXXXXXXXXooooooooo......ooooooooooooooooo",
"oooooooooooooooooooXXXXXXXXXXXXXXoooooooooo..ooooooooooooooooooo",
"oooooooooooooooooooooXXXXXXXXXXXXXXooooooooooooooooooooooooooooo",
"ooooooooooooooooooooooXXXXXXXXXXXXXXXooooooooooooooooooooooooooo",
"ooooooooooooooooooooooooXXXXXXXXXXXXXXoooooooooooooooooooooooooo",
"ooooooooooooooooooooooooooXXXXXXXXXXXXoooooooooooooooooooooooooo",
"ooooooooooooooooooooooooooooXXXXXXXXoooooooooooooooooooooooooooo",
"oooooooooooooooooooooooooooooXXXXXXooooooooooooooooooooooooooooo",
"oooooooooooooooooooooooooooooooXXooooooooooooooooooooooooooooooo"
};
